<?xml version="1.0" encoding="UTF-8" standalone="no"?>
<!-- Created with Inkscape (http://www.inkscape.org/) -->

<svg
   width="292.72156mm"
   height="163.23422mm"
   viewBox="0 0 292.72156 163.23422"
   version="1.1"
   id="svg5298"
   xml:space="preserve"
   inkscape:version="1.2.1 (9c6d41e410, 2022-07-14)"
   sodipodi:docname="RAP_benefits.svg"
   inkscape:export-filename="RAP_benefits.png"
   inkscape:export-xdpi="96"
   inkscape:export-ydpi="96"
   xmlns:inkscape="http://www.inkscape.org/namespaces/inkscape"
   xmlns:sodipodi="http://sodipodi.sourceforge.net/DTD/sodipodi-0.dtd"
   xmlns="http://www.w3.org/2000/svg"
   xmlns:svg="http://www.w3.org/2000/svg"><sodipodi:namedview
     id="namedview5300"
     pagecolor="#ffffff"
     bordercolor="#eeeeee"
     borderopacity="1"
     inkscape:showpageshadow="0"
     inkscape:pageopacity="0"
     inkscape:pagecheckerboard="0"
     inkscape:deskcolor="#505050"
     inkscape:document-units="mm"
     showgrid="false"
     inkscape:zoom="0.68511404"
     inkscape:cx="588.95305"
     inkscape:cy="403.58245"
     inkscape:window-width="1920"
     inkscape:window-height="991"
     inkscape:window-x="-9"
     inkscape:window-y="-9"
     inkscape:window-maximized="1"
     inkscape:current-layer="layer1" /><defs
     id="defs5295" /><g
     inkscape:label="Layer 1"
     inkscape:groupmode="layer"
     id="layer1"
     transform="translate(57.797535,-42.908192)"><path
       id="rect5483"
       style="fill:#2294e0;fill-opacity:1;stroke-width:7.30001;stroke-linecap:round;stroke-linejoin:round;stroke-dasharray:2.356, 1.178"
       d="m -39.249294,103.98398 v 49.88222 h 71.729989 l 24.591781,-24.59229 -22.246188,-22.24619 -0.0047,0.004 -1.299145,-1.30793 -1.205611,-1.20561 v -0.008 l -0.520899,-0.52451 H 11.378107 v -0.002 z" /><path
       id="rect5483-4-7"
       style="fill:#b3b3b3;fill-opacity:1;stroke-width:7.30001;stroke-linecap:round;stroke-linejoin:round;stroke-dasharray:2.356, 1.178"
       d="m 67.454799,103.98313 -49.97317,5.2e-4 v 0.002 h 20.41787 l 0.5209,0.52452 v 0.008 l 1.20561,1.20561 1.29915,1.30793 0.0052,-0.004 22.24619,22.24619 -24.59178,24.5923 h 49.97318 l 24.591741,-24.5923 -22.246162,-22.24619 -0.005,0.004 -1.299131,-1.30793 -1.205608,-1.20561 v -0.008 l -0.5209,-0.52452 h -20.41788 z" /><path
       id="rect5483-4-7-9"
       style="fill:#b3b3b3;fill-opacity:1;stroke-width:7.30001;stroke-linecap:round;stroke-linejoin:round;stroke-dasharray:2.356, 1.178"
       d="m 174.75206,103.98313 -49.97317,5.2e-4 v 0.002 h 20.41787 l 0.5209,0.52452 v 0.008 l 1.20561,1.20561 1.29915,1.30793 0.005,-0.004 22.24619,22.24619 -24.59178,24.5923 h 49.97318 l 24.59174,-24.5923 -22.24617,-22.24619 -0.005,0.004 -1.29913,-1.30793 -1.2056,-1.20561 v -0.008 l -0.5209,-0.52452 h -20.41788 z" /><path
       id="rect5483-4-7-0"
       style="fill:#2294e0;fill-opacity:1;stroke-width:7.30001;stroke-linecap:round;stroke-linejoin:round;stroke-dasharray:2.356, 1.178"
       d="m 139.42878,103.98314 -49.973173,5.1e-4 v 0.002 h 20.417873 l 0.5209,0.52452 v 0.008 l 1.20561,1.20562 1.29915,1.30793 0.005,-0.004 22.24619,22.24619 -24.59178,24.59229 h 29.21941 l 24.59178,-24.59229 -22.24619,-22.24619 -0.005,0.004 -1.29914,-1.30793 -1.20561,-1.20562 v -0.008 l -0.5209,-0.52452 h -20.41788 v -0.002 h 20.75377 z" /><path
       id="rect5483-4"
       style="fill:#800080;fill-opacity:1;stroke-width:7.30001;stroke-linecap:round;stroke-linejoin:round;stroke-dasharray:2.356, 1.178"
       d="m 73.558849,103.98367 v 0.002 h 9.793201 v -0.002 z m 20.417358,0.002 0.520899,0.52451 v 0.008 l 1.205611,1.20561 1.299145,1.30793 0.0052,-0.004 22.245668,22.24619 -24.591261,24.59229 h 9.793201 l 24.59178,-24.59229 -22.24619,-22.24619 -0.005,0.004 -1.29915,-1.30793 -1.20561,-1.20561 v -0.008 l -0.5209,-0.52451 z" /><text
       xml:space="preserve"
       style="font-size:11.2889px;line-height:1;font-family:Poppins;-inkscape-font-specification:'Poppins, Normal';text-align:center;text-anchor:middle;fill:#ffffff;fill-opacity:1;stroke-width:7.30001;stroke-linecap:round;stroke-linejoin:round;stroke-dasharray:2.356, 1.178"
       x="-9.2051849"
       y="118.73156"
       id="text6478"><tspan
         sodipodi:role="line"
         id="tspan6476"
         style="fill:#ffffff;stroke-width:7.3"
         x="-9.205184"
         y="118.73156"> Analyses</tspan></text><text
       xml:space="preserve"
       style="font-size:11.2889px;line-height:1;font-family:Poppins;-inkscape-font-specification:'Poppins, Normal';text-align:center;text-anchor:middle;fill:#ffffff;fill-opacity:1;stroke-width:7.30001;stroke-linecap:round;stroke-linejoin:round;stroke-dasharray:2.356, 1.178"
       x="73.261772"
       y="118.44834"
       id="text6478-9"><tspan
         sodipodi:role="line"
         id="tspan6476-5"
         style="fill:#000000;stroke-width:7.3"
         x="73.261772"
         y="118.44834">Review</tspan></text><text
       xml:space="preserve"
       style="font-size:11.2889px;line-height:1;font-family:Poppins;-inkscape-font-specification:'Poppins, Normal';text-align:center;text-anchor:middle;fill:#ffffff;fill-opacity:1;stroke-width:7.30001;stroke-linecap:round;stroke-linejoin:round;stroke-dasharray:2.356, 1.178"
       x="179.26863"
       y="116.60938"
       id="text6478-9-3"><tspan
         sodipodi:role="line"
         id="tspan6476-5-61"
         style="fill:#000000;stroke-width:7.3"
         x="179.26863"
         y="116.60938">Review</tspan></text><text
       xml:space="preserve"
       style="font-size:11.2889px;line-height:1;font-family:Poppins;-inkscape-font-specification:'Poppins, Normal';text-align:start;text-anchor:start;fill:#ffffff;fill-opacity:1;stroke-width:7.30001;stroke-linecap:round;stroke-linejoin:round;stroke-dasharray:2.356, 1.178"
       x="105.79906"
       y="78.124962"
       id="text6478-9-2"><tspan
         sodipodi:role="line"
         id="tspan6476-5-1"
         style="text-align:start;text-anchor:start;fill:#000000;stroke-width:7.3"
         x="105.79906"
         y="78.124962">Repeat</tspan><tspan
         sodipodi:role="line"
         style="text-align:start;text-anchor:start;fill:#000000;stroke-width:7.3"
         x="105.79906"
         y="89.413864"
         id="tspan7505">analyses</tspan></text><text
       xml:space="preserve"
       style="font-size:11.2889px;line-height:1;font-family:Poppins;-inkscape-font-specification:'Poppins, Normal';text-align:center;text-anchor:middle;fill:#ffffff;fill-opacity:1;stroke-width:7.30001;stroke-linecap:round;stroke-linejoin:round;stroke-dasharray:2.356, 1.178"
       x="84.047905"
       y="166.60182"
       id="text6478-9-4"><tspan
         sodipodi:role="line"
         id="tspan6476-5-6"
         style="fill:#000000;stroke-width:7.3"
         x="84.047905"
         y="166.60182">New </tspan><tspan
         sodipodi:role="line"
         style="fill:#000000;stroke-width:7.3"
         x="84.047905"
         y="177.89072"
         id="tspan6710">data</tspan></text><path
       style="fill:#000000;fill-opacity:1;stroke:#000000;stroke-width:1;stroke-linecap:round;stroke-linejoin:round;stroke-dasharray:0.322739, 0.16137;stroke-dashoffset:0;stroke-opacity:1"
       d="m 126.35537,91.615436 -0.0579,11.225934"
       id="path7570" /><path
       style="fill:#000000;fill-opacity:1;stroke:#000000;stroke-width:1;stroke-linecap:round;stroke-linejoin:round;stroke-dasharray:0.322739, 0.16137;stroke-dashoffset:0;stroke-opacity:1"
       d="m 94.922613,158.67066 7.373067,-8.46538"
       id="path7570-5" /></g></svg>
